<svg width="16.333496" height="28.001465" viewBox="0 0 16.3335 28.0015" fill="none" xmlns="http://www.w3.org/2000/svg" xmlns:xlink="http://www.w3.org/1999/xlink">
	<desc>
			Created with Pixso.
	</desc>
	<defs/>
	<path id="Vector" d="M15.75 0.2C14.4 0.06 13.05 -0.01 11.7 0C7.22 0 4.43 2.85 4.43 7.45L4.43 10.57L0.66 10.57C0.48 10.57 0.32 10.64 0.19 10.77C0.07 10.89 0 11.06 0 11.24L0 16.37C0 16.55 0.07 16.72 0.19 16.84C0.32 16.97 0.48 17.04 0.66 17.04L4.43 17.04L4.43 27.33C4.43 27.51 4.5 27.68 4.62 27.8C4.75 27.93 4.92 28 5.1 28L10.4 28C10.58 28 10.75 27.93 10.87 27.8C11 27.68 11.07 27.51 11.07 27.33L11.07 17.04L14.82 17.04C14.98 17.04 15.14 16.98 15.26 16.87C15.38 16.76 15.46 16.62 15.48 16.46L16.14 11.32C16.16 11.23 16.15 11.13 16.12 11.04C16.09 10.95 16.05 10.87 15.98 10.8C15.92 10.73 15.84 10.67 15.76 10.63C15.67 10.59 15.58 10.57 15.48 10.57L11.07 10.57L11.07 7.96C11.07 6.66 11.33 6.12 12.94 6.12L15.66 6.12C15.84 6.12 16.01 6.05 16.13 5.93C16.26 5.8 16.33 5.63 16.33 5.46L16.33 0.86C16.33 0.7 16.27 0.55 16.16 0.42C16.06 0.3 15.91 0.22 15.75 0.2ZM15 4.79L12.94 4.79C10.07 4.79 9.73 6.6 9.73 7.96L9.73 11.24C9.73 11.41 9.8 11.58 9.93 11.71C10.05 11.83 10.22 11.9 10.4 11.9L14.73 11.9L14.23 15.7L10.4 15.7C10.22 15.7 10.05 15.77 9.93 15.9C9.8 16.02 9.73 16.19 9.73 16.37L9.73 26.66L5.76 26.66L5.76 16.37C5.76 16.19 5.69 16.02 5.57 15.9C5.44 15.77 5.27 15.7 5.1 15.7L1.33 15.7L1.33 11.9L5.1 11.9C5.27 11.9 5.44 11.83 5.57 11.71C5.69 11.58 5.76 11.41 5.76 11.24L5.76 7.45C5.76 3.62 7.98 1.33 11.7 1.33C13.04 1.33 14.26 1.4 15 1.47L15 4.79Z" fill="#011C44" fill-opacity="1.000000" fill-rule="nonzero"/>
</svg>
