<svg width="24.500000" height="24.500000" viewBox="0 0 24.5 24.5" fill="none" xmlns="http://www.w3.org/2000/svg" xmlns:xlink="http://www.w3.org/1999/xlink">
	<desc>
			Created with Pixso.
	</desc>
	<defs/>
	<path id="Vector" d="M12.25 6.5C11.11 6.5 10 6.83 9.05 7.46C8.1 8.1 7.37 8.99 6.93 10.04C6.5 11.1 6.38 12.25 6.61 13.37C6.83 14.48 7.37 15.51 8.18 16.31C8.98 17.12 10.01 17.66 11.12 17.88C12.24 18.11 13.39 17.99 14.45 17.56C15.5 17.12 16.39 16.39 17.03 15.44C17.66 14.49 18 13.38 18 12.25C18 10.72 17.39 9.26 16.31 8.18C15.23 7.1 13.77 6.5 12.25 6.5ZM12.25 16.5C11.4 16.5 10.58 16.25 9.88 15.78C9.18 15.31 8.64 14.65 8.32 13.87C8 13.09 7.91 12.24 8.08 11.42C8.24 10.59 8.65 9.83 9.24 9.24C9.83 8.65 10.59 8.24 11.42 8.08C12.24 7.91 13.09 8 13.87 8.32C14.65 8.64 15.31 9.18 15.78 9.88C16.25 10.58 16.5 11.4 16.5 12.25C16.49 13.37 16.04 14.45 15.25 15.25C14.45 16.04 13.37 16.49 12.25 16.5ZM17.75 0L6.75 0C4.95 0 3.24 0.71 1.97 1.97C0.71 3.24 0 4.95 0 6.75L0 17.75C0 19.54 0.71 21.25 1.97 22.52C3.24 23.78 4.95 24.5 6.75 24.5L17.75 24.5C19.54 24.5 21.25 23.78 22.52 22.52C23.78 21.25 24.5 19.54 24.5 17.75L24.5 6.75C24.5 4.95 23.78 3.24 22.52 1.97C21.25 0.71 19.54 0 17.75 0ZM23 17.75C23 19.14 22.44 20.47 21.46 21.46C20.47 22.44 19.14 23 17.75 23L6.75 23C5.35 23 4.02 22.44 3.03 21.46C2.05 20.47 1.5 19.14 1.5 17.75L1.5 6.75C1.5 5.35 2.05 4.02 3.03 3.03C4.02 2.05 5.35 1.5 6.75 1.5L17.75 1.5C19.14 1.5 20.47 2.05 21.46 3.03C22.44 4.02 23 5.35 23 6.75L23 17.75ZM20 5.75C20 5.99 19.92 6.23 19.78 6.44C19.65 6.64 19.45 6.81 19.22 6.9C19 6.99 18.74 7.02 18.5 6.97C18.26 6.92 18.04 6.8 17.86 6.63C17.69 6.45 17.57 6.23 17.52 5.99C17.47 5.75 17.5 5.5 17.59 5.27C17.68 5.04 17.85 4.84 18.05 4.71C18.26 4.57 18.5 4.5 18.75 4.5C19.08 4.5 19.39 4.63 19.63 4.86C19.86 5.1 20 5.41 20 5.75Z" fill="#011C44" fill-opacity="1.000000" fill-rule="nonzero"/>
</svg>
