<svg width="26.620117" height="30.310059" viewBox="0 0 26.6201 30.3101" fill="none" xmlns="http://www.w3.org/2000/svg" xmlns:xlink="http://www.w3.org/1999/xlink">
	<desc>
			Created with Pixso.
	</desc>
	<defs/>
	<path id="Vector" d="M24.96 22.11L24.78 21.9C23.41 20.16 22.26 19.26 21.28 19.14C20.43 19.02 19.61 19.61 18.73 20.22L17.8 20.8C17.69 20.86 17.57 20.9 17.47 20.93C16.92 21.09 15.54 21.18 14.76 20.46C13.85 19.63 12.44 18.11 11.35 16.78C10.3 15.4 9.15 13.68 8.54 12.6C8.04 11.69 8.46 10.4 8.75 9.93C8.8 9.84 8.87 9.75 8.96 9.65L9.78 8.89C9.79 8.88 9.8 8.87 9.81 8.86C9.82 8.85 9.83 8.85 9.84 8.84C10.58 8.22 11.35 7.57 11.46 6.74C11.58 5.76 10.97 4.44 9.6 2.71L9.43 2.49C8.58 1.4 7.29 -0.25 5.45 0.02C4.72 0.13 4.07 0.38 3.4 0.8C3.39 0.81 3.39 0.81 3.39 0.82C3.38 0.82 3.37 0.82 3.37 0.82L2.44 1.52C2.43 1.52 2.42 1.53 2.41 1.54C2.41 1.55 2.39 1.55 2.39 1.56C2.28 1.65 2.17 1.74 2.06 1.84C1.12 2.68 -0.93 5.12 0.47 9.65C1.37 12.57 3.23 15.98 5.86 19.53L5.83 19.55L7.28 21.36L7.29 21.35C10.14 24.72 13.04 27.33 15.7 28.9C17.47 29.96 19.02 30.31 20.3 30.31C21.97 30.31 23.17 29.7 23.78 29.31L24.16 29.06C24.2 29.03 24.23 28.99 24.26 28.95L25.09 28.33C25.09 28.32 25.1 28.31 25.11 28.3C25.11 28.3 25.12 28.3 25.13 28.29C25.71 27.76 26.12 27.2 26.4 26.53C27.13 24.83 25.82 23.19 24.96 22.11ZM25.42 26.11C25.2 26.63 24.88 27.07 24.42 27.5L23.19 28.42C22.08 29.14 19.7 30.04 16.25 27.99C13.59 26.41 10.66 23.74 7.78 20.27L7.01 19.29C4.29 15.7 2.39 12.25 1.49 9.34C0.32 5.54 1.79 3.51 2.78 2.63C2.88 2.54 2.98 2.45 3.08 2.37L3.08 2.37L3.98 1.7C4.52 1.36 5.02 1.17 5.6 1.08C6.84 0.89 7.85 2.2 8.59 3.15L8.76 3.37C10.3 5.31 10.45 6.23 10.4 6.6C10.35 7.02 9.71 7.56 9.15 8.03L9.07 8.09C9.07 8.1 9.07 8.1 9.07 8.1C9.06 8.1 9.06 8.11 9.05 8.11L8.2 8.9C8.2 8.9 8.19 8.91 8.19 8.92C8.18 8.92 8.17 8.92 8.17 8.93C8.04 9.08 7.92 9.23 7.83 9.38C7.35 10.18 6.9 11.84 7.61 13.12C8.24 14.24 9.42 16.01 10.51 17.44C11.65 18.82 13.1 20.39 14.04 21.25C14.75 21.89 15.73 22.11 16.58 22.11C17.03 22.11 17.45 22.04 17.77 21.96C17.93 21.91 18.11 21.84 18.28 21.75C18.29 21.75 18.3 21.74 18.31 21.73C18.31 21.73 18.32 21.73 18.33 21.73L19.32 21.11C19.35 21.08 19.37 21.06 19.4 21.03L19.41 21.04C20.02 20.62 20.71 20.12 21.15 20.2C21.53 20.24 22.41 20.61 23.95 22.56L24.12 22.78C24.87 23.71 25.9 24.99 25.42 26.11Z" fill="#011C44" fill-opacity="1.000000" fill-rule="nonzero"/>
</svg>
